<?xml version="1.0" encoding="UTF-8" standalone="no"?>
<svg
   id="Layer_2"
   data-name="Layer 2"
   viewBox="0 0 128 128"
   version="1.1"
   sodipodi:docname="logo.svg"
   width="128"
   height="128"
   inkscape:version="1.4.3 (0d15f75042, 2025-12-25)"
   xmlns:inkscape="http://www.inkscape.org/namespaces/inkscape"
   xmlns:sodipodi="http://sodipodi.sourceforge.net/DTD/sodipodi-0.dtd"
   xmlns="http://www.w3.org/2000/svg"
   xmlns:svg="http://www.w3.org/2000/svg">
  <sodipodi:namedview
     id="namedview6"
     pagecolor="#ffffff"
     bordercolor="#000000"
     borderopacity="0.25"
     inkscape:showpageshadow="2"
     inkscape:pageopacity="0.0"
     inkscape:pagecheckerboard="0"
     inkscape:deskcolor="#d1d1d1"
     inkscape:zoom="1.28"
     inkscape:cx="43.359375"
     inkscape:cy="183.98438"
     inkscape:window-width="1824"
     inkscape:window-height="1034"
     inkscape:window-x="0"
     inkscape:window-y="0"
     inkscape:window-maximized="1"
     inkscape:current-layer="Layer_2" />
  <defs
     id="defs1">
    <style
       id="style1">
      .cls-1 {
        fill: #fff;
      }

      .cls-2 {
        fill: #6ae5e1;
      }

      .cls-3 {
        fill: #3b4656;
      }
    </style>
  </defs>
  <g
     id="dark-4"
     transform="matrix(0.08939103,0,0,0.08939103,-3.899948e-4,18.839439)">
    <path
       class="cls-2"
       d="m 475.79,480.32 c -86.73,17.9 -182.84,47.16 -250.83,69.53 -5.5,1.81 -9.8,-4.87 -5.89,-9.13 60.07,-65.44 108.05,-148.67 108.05,-148.67 96.79,-164.04 256.76,-262.84 445.51,-236.29 72.29,10.17 137.85,37.79 192.94,78.01 11.05,8.07 12.75,23.9 3.52,34 -4.45,4.87 -10.63,7.45 -16.89,7.45 -3.82,0 -7.66,-0.96 -11.16,-2.96 C 905.11,251.68 864.76,242.2 821.3,236.08 674.89,215.49 537.25,289.19 474.05,413.1 c -10.51,20.6 -6.82,42.54 5.03,58.29 2.5,3.32 0.78,8.1 -3.29,8.94 z"
       id="path1"
       style="fill:#7b7c7d;fill-opacity:1" />
    <path
       class="cls-3"
       d="m 1151.76,579.16 c -7.27,1.28 -14.11,-4.09 -14.33,-11.48 -0.63,-21.91 1.71,-43.51 -2.22,-64.64 -3.08,-16.6 -18.52,-27.99 -35.31,-26.16 l -0.57,0.07 c -73,8.06 -275.36,34.58 -536.62,104.13 -77.07,20.51 -109.86,111.75 -63.34,176.52 51.67,71.96 132.35,122.14 228.17,135.62 132.09,18.58 257.01,-37.58 326.59,-141.44 6.04,-9.03 17.25,-13.06 27.57,-9.65 10.22,3.37 16.47,12.84 16.47,22.82 0,3.66 -0.84,7.38 -2.63,10.9 -80.84,158.87 -256.15,256.54 -442.55,230.31 -87.67,-12.33 -165.46,-50.36 -226.74,-105.39 -0.05,-0.04 -0.11,-0.09 -0.17,-0.13 C 344.72,843.18 261.73,788.92 121.54,766.76 -88.91,733.49 14.95,668.95 126.72,612.74 c 82.29,-35.04 281.44,-88.35 405.1,-120 1.75,-0.29 3.52,-0.67 5.29,-1.13 16.96,-4.44 35.79,-9.29 56.17,-14.41 11.83,-2.95 21.61,-5.37 28.86,-7.16 1.02,-0.25 1.98,-0.49 2.89,-0.71 3.47,-0.85 6.21,-1.52 8.16,-1.99 0.31,-0.08 0.63,-0.16 0.95,-0.24 0.3,-0.07 0.58,-0.14 0.82,-0.2 0.22,-0.05 0.44,-0.1 0.66,-0.16 0.16,-0.04 0.33,-0.08 0.5,-0.12 0.11,-0.03 0.22,-0.05 0.34,-0.08 0.13,-0.03 0.19,-0.05 0.19,-0.05 118.77,-28.85 275.31,-62.84 421.88,-82.11 11.37,-1.49 22.68,-2.86 33.89,-4.16 83.78,-9.75 162.97,-14.06 228.32,-9.08 284.26,21.75 -52.61,187.49 -168.98,208.02 z"
       id="path2"
       style="fill:#010203;fill-opacity:1" />
    <path
       class="cls-2"
       d="m 1096.96,0.7 c -3.27,23.29 -19.27,94.08 -93.49,102.76 -0.95,0.11 -0.95,1.47 0,1.58 74.22,8.68 90.24,79.48 93.51,102.76 0.13,0.93 1.47,0.93 1.6,0 3.27,-23.29 19.27,-94.08 93.49,-102.76 0.95,-0.11 0.95,-1.47 0,-1.58 -74.22,-8.68 -90.24,-79.48 -93.51,-102.76 -0.13,-0.93 -1.47,-0.93 -1.6,0 z"
       id="path3"
       style="fill:#7b7c7d;fill-opacity:1" />
    <path
       class="cls-2"
       d="m 1267.37,173.28 c -2.44,14.41 -12.09,48.65 -49,54.42 -0.92,0.14 -0.92,1.43 0,1.57 36.91,5.77 46.57,40.02 49.01,54.42 0.15,0.89 1.44,0.89 1.59,0 2.44,-14.41 12.09,-48.65 49,-54.42 0.92,-0.14 0.92,-1.43 0,-1.57 -36.91,-5.77 -46.57,-40.02 -49.01,-54.42 -0.15,-0.89 -1.44,-0.89 -1.59,0 z"
       id="path4"
       style="fill:#7b7c7d;fill-opacity:1" />
    <path
       class="cls-2"
       d="m 1259.85,729.09 c -2.11,11.28 -9.63,35.23 -35.8,39.95 -0.89,0.16 -0.89,1.4 0,1.56 26.17,4.72 33.7,28.66 35.81,39.95 0.16,0.88 1.42,0.88 1.59,0 2.11,-11.28 9.63,-35.23 35.8,-39.95 0.89,-0.16 0.89,-1.4 0,-1.56 -26.17,-4.72 -33.7,-28.66 -35.81,-39.95 -0.16,-0.88 -1.42,-0.88 -1.59,0 z"
       id="path5"
       style="fill:#7b7c7d;fill-opacity:1" />
  </g>
</svg>
