<svg xmlns="http://www.w3.org/2000/svg" width="64" height="64" version="1.1" viewBox="0 0 16.933 16.933"><defs><linearGradient id="a" x1="43" x2="49" y1="44" y2="50" gradientTransform="scale(.26458)" gradientUnits="userSpaceOnUse"><stop offset="0"/><stop offset="1" stop-opacity="0"/></linearGradient></defs><g><circle cx="8.466" cy="8.466" r="7.144" fill="#72787e" style="paint-order:stroke fill markers"/><rect width="4.233" height=".529" x="5.821" y="9.525" fill="#fff" ry=".265" style="paint-order:stroke markers fill"/><path fill="#fff" d="m4.502 4.725a0.264 0.264 0 0 0-0.262 0.13 0.264 0.264 0 0 0 0.097 0.362l2.842 1.64-2.842 1.641a0.264 0.264 0 0 0-0.097 0.362c0.074 0.127 0.235 0.17 0.362 0.097l3.207-1.852a0.26 0.26 0 0 0 0.127-0.225c0.00201-8e-3 0.00101-0.014999 0.00201-0.022 0-8e-3 0-0.014999-0.00201-0.023a0.26 0.26 0 0 0-0.127-0.224l-3.207-1.853a0.266 0.266 0 0 0-0.1-0.033z" style="paint-order:stroke markers fill"/></g><path fill="url(#a)" stroke-width=".265" d="m15.582 9.0235-6.5629 6.5629a7.1437 7.1437 0 0 0 6.5629-6.5629z" opacity=".25" style="paint-order:stroke fill markers"/></svg>
